<?xml version="1.0" encoding="utf-8"?>
<!-- Generator: Adobe Illustrator 19.2.1, SVG Export Plug-In . SVG Version: 6.00 Build 0)  -->
<svg version="1.1" id="Layer_1" xmlns="http://www.w3.org/2000/svg" xmlns:xlink="http://www.w3.org/1999/xlink" x="0px" y="0px"
	 viewBox="0 0 283.2 64.5" style="enable-background:new 0 0 283.2 64.5;" xml:space="preserve">
<style type="text/css">
	.st0{fill:#FFFFFF;}
	.st1{fill:#4A96D1;}
	.st2{fill:none;}
	.st3{fill:#4C7BBC;}
	.st4{fill:#628BC8;}
	.st5{fill:#3B64AC;}
	.st6{fill:#1E447D;}
	.st7{fill:#9BBFE2;}
</style>
<g>
	<path class="st0" d="M157.5,47.3l10.2-42.2H179l10.3,42.2h-9.1L178,36.7h-9.7l-2.2,10.6C166.1,47.3,157.5,47.3,157.5,47.3z
		 M169.6,30.3h7.2l-3.6-17.7L169.6,30.3z"/>
	<path class="st0" d="M190.6,36.7h7.1v0.9c0,1.8,0.3,3.1,0.9,3.9c0.6,0.8,1.6,1.2,3,1.2c1.1,0,2-0.3,2.6-0.8s0.9-1.3,0.9-2.3
		c0-1.2-1.3-2.6-3.8-4.2c-0.6-0.4-1.1-0.7-1.5-0.9l-0.4-0.2c-5.8-3.7-8.7-7.3-8.7-10.9c0-2.8,0.9-5,2.8-6.4c1.9-1.5,4.6-2.2,8.2-2.2
		c3.4,0,6,0.8,7.8,2.5c1.7,1.6,2.6,4.1,2.6,7.4v0.7h-6.9v-0.7c0-1.5-0.3-2.7-0.9-3.4s-1.6-1.1-3-1.1c-1,0-1.8,0.3-2.4,0.8
		c-0.6,0.5-0.9,1.2-0.9,2s0.3,1.5,0.8,2.1s1.7,1.5,3.5,2.6c0.4,0.3,1,0.6,1.8,1.1c5.7,3.5,8.6,7,8.6,10.6c0,2.8-1,5-2.9,6.5
		s-4.7,2.3-8.2,2.3c-3.7,0-6.5-0.8-8.3-2.5c-1.8-1.6-2.7-4.2-2.7-7.7c0-0.1,0-0.3,0-0.6C190.6,37.1,190.6,36.9,190.6,36.7z"/>
	<path class="st0" d="M225.1,35.6v2.1c0,1.7,0.2,2.8,0.5,3.2c0.3,0.5,1,0.7,1.9,0.7c0.2,0,0.4,0,0.5,0s0.2,0,0.3,0v5.7
		c-1.1,0.1-2,0.2-2.7,0.2c-0.6,0-1.2,0.1-1.5,0.1c-2.6,0-4.5-0.5-5.5-1.5s-1.5-3-1.5-6V21H214v-5.5h3.1V6.9h7.9v8.7h3.3V21H225v14.6
		H225.1z"/>
	<path class="st0" d="M230.7,31.4c0-6.4,0.9-10.8,2.6-13.2s4.9-3.6,9.3-3.6c4.5,0,7.6,1.2,9.4,3.6c1.8,2.4,2.6,6.8,2.6,13.2
		s-0.9,10.8-2.6,13.2c-1.8,2.4-4.9,3.6-9.4,3.6s-7.6-1.2-9.3-3.6C231.6,42.2,230.7,37.8,230.7,31.4z M238.7,31.1v0.7
		c0,4.9,0.3,7.9,0.8,9c0.5,1.1,1.5,1.6,3.1,1.6s2.6-0.5,3.2-1.5c0.5-1,0.8-3.7,0.8-8v-1.3v-1.8c0-4.2-0.3-6.8-0.8-7.8
		c-0.6-1.1-1.6-1.6-3.1-1.6s-2.5,0.5-3.1,1.5s-0.8,3.3-0.8,7.1L238.7,31.1L238.7,31.1z"/>
	<path class="st0" d="M259,47.3V15.6h7.7v3.2c0.8-1.3,1.8-2.3,3-3c1.2-0.7,2.6-1,4.1-1c2.5,0,4.4,0.7,5.7,2s2,3.2,2,5.7v24.9h-7.6
		V26c0-1.9-0.3-3.2-0.8-3.9s-1.4-1.1-2.6-1.1c-1.3,0-2.3,0.5-2.8,1.4c-0.6,0.9-0.9,2.5-0.9,4.7v20.2H259z"/>
</g>
<g>
	<path class="st1" d="M72.7,26.2c0-4.5,0.2-8.1,0.7-10.7c0.5-2.7,1.2-4.7,2.1-6c1.3-1.9,2.9-3.3,4.7-4.1S84.4,4,87.4,4
		s5.4,0.4,7.2,1.2s3.4,2.2,4.7,4.1c1,1.4,1.7,3.4,2.1,6.1s0.7,6.2,0.7,10.7c0,4.4-0.2,8-0.7,10.7s-1.1,4.7-2.1,6.1
		c-1.3,1.9-2.9,3.3-4.7,4.1c-1.8,0.8-4.2,1.2-7.2,1.2S82,47.8,80.2,47c-1.8-0.8-3.4-2.2-4.7-4.1c-1-1.4-1.7-3.4-2.1-6
		C72.9,34.2,72.7,30.6,72.7,26.2z M81.3,26.2c0,6.9,0.4,11.3,1.3,13.1c0.9,1.8,2.5,2.7,4.8,2.7s3.9-0.9,4.7-2.6
		c0.9-1.8,1.3-6.2,1.3-13.2S93,14.8,92.1,13s-2.5-2.7-4.8-2.7s-3.9,0.9-4.8,2.7S81.3,19.1,81.3,26.2z"/>
	<path class="st1" d="M106.3,47.3V15.6h7.7v3.2c0.8-1.3,1.8-2.3,3-3c1.2-0.7,2.6-1,4.1-1c2.5,0,4.4,0.7,5.7,2s2,3.2,2,5.7v24.9h-7.6
		V26c0-1.9-0.3-3.2-0.8-3.9S119,21,117.8,21c-1.3,0-2.3,0.5-2.8,1.4c-0.6,0.9-0.9,2.5-0.9,4.7v20.2H106.3z"/>
	<path class="st1" d="M148.3,36.4h7.4c0,0.1,0,0.4,0,0.6c0,0.3,0,0.5,0,0.6c0,3.6-0.9,6.3-2.8,8c-1.9,1.7-4.8,2.5-8.8,2.5
		c-2.1,0-3.9-0.2-5.3-0.7c-1.4-0.5-2.6-1.3-3.5-2.3c-1.1-1.2-1.9-2.8-2.3-4.6c-0.5-1.9-0.7-5.2-0.7-10.1c0-3.9,0.2-6.6,0.6-8.3
		c0.4-1.7,1.1-3,2-4.1c1-1.1,2.3-1.9,3.8-2.5c1.6-0.6,3.5-0.8,5.6-0.8s3.9,0.3,5.4,0.9s2.8,1.5,3.8,2.7c0.8,1.1,1.4,2.4,1.8,4
		c0.4,1.6,0.5,4.2,0.5,7.7v2.4h-15.5c0,0.2-0.1,0.5-0.1,0.8s0,0.7,0,1.3c0,3,0.3,5.1,0.9,6.3c0.6,1.2,1.6,1.8,3,1.8s2.4-0.5,3-1.5
		C148,40.2,148.3,38.6,148.3,36.4z M140.4,27.4h7.6v-1.3c0-2.2-0.3-3.7-0.9-4.5s-1.6-1.2-3-1.2s-2.4,0.4-3,1.3s-0.9,2.3-0.9,4.5
		C140.4,26.7,140.4,27.1,140.4,27.4z"/>
</g>
<g>
	<path class="st0" d="M78.6,57.1H75V60h4.2v0.9h-5.3v-8.1h5.2v0.9H75v2.6h3.6V57.1z"/>
	<path class="st0" d="M82.6,57.1l1.3-2.2h1.3l-1.9,3l2,3h-1.2l-1.3-2.3l-1.3,2.3H80l2-3l-1.9-3h1.2L82.6,57.1z"/>
	<path class="st0" d="M88.8,60.1c0.4,0,0.7-0.1,0.9-0.3c0.3-0.2,0.4-0.5,0.4-0.8h1l0,0c0,0.5-0.2,1-0.7,1.4s-1,0.6-1.6,0.6
		c-0.9,0-1.5-0.3-2-0.9c-0.5-0.6-0.7-1.3-0.7-2.1v-0.2c0-0.9,0.2-1.6,0.7-2.1c0.5-0.6,1.1-0.9,2-0.9c0.7,0,1.3,0.2,1.7,0.6
		c0.4,0.4,0.7,0.9,0.6,1.5l0,0h-1c0-0.4-0.1-0.7-0.4-0.9c-0.3-0.3-0.6-0.4-1-0.4c-0.6,0-1,0.2-1.2,0.6c-0.2,0.4-0.4,0.9-0.4,1.5V58
		c0,0.6,0.1,1.1,0.4,1.5C87.8,59.9,88.3,60.1,88.8,60.1z"/>
	<path class="st0" d="M95.1,61c-0.8,0-1.5-0.3-2-0.8c-0.5-0.6-0.7-1.3-0.7-2.2v-0.2c0-0.9,0.3-1.6,0.8-2.1s1.1-0.9,1.8-0.9
		c0.8,0,1.4,0.2,1.8,0.7s0.6,1.1,0.6,2v0.7h-3.8l0,0c0,0.6,0.2,1,0.4,1.4c0.3,0.4,0.7,0.6,1.2,0.6c0.4,0,0.7-0.1,1-0.2
		c0.3-0.1,0.5-0.2,0.7-0.4l0.4,0.7c-0.2,0.2-0.5,0.4-0.8,0.5S95.6,61,95.1,61z M95,55.6c-0.4,0-0.7,0.2-0.9,0.5
		c-0.3,0.3-0.4,0.7-0.5,1.2l0,0h2.7v-0.1c0-0.4-0.1-0.8-0.3-1.1S95.4,55.6,95,55.6z"/>
	<path class="st0" d="M100.1,60.9H99v-8.6h1.1V60.9z"/>
	<path class="st0" d="M103.2,60.9h-1.1v-8.6h1.1V60.9z"/>
	<path class="st0" d="M107.6,61c-0.8,0-1.5-0.3-2-0.8c-0.5-0.6-0.7-1.3-0.7-2.2v-0.2c0-0.9,0.3-1.6,0.8-2.1s1.1-0.9,1.8-0.9
		c0.8,0,1.4,0.2,1.8,0.7s0.6,1.1,0.6,2v0.7H106l0,0c0,0.6,0.2,1,0.4,1.4c0.3,0.4,0.7,0.6,1.2,0.6c0.4,0,0.7-0.1,1-0.2
		c0.3-0.1,0.5-0.2,0.7-0.4l0.4,0.7c-0.2,0.2-0.5,0.4-0.8,0.5S108.1,61,107.6,61z M107.5,55.6c-0.4,0-0.7,0.2-0.9,0.5
		c-0.3,0.3-0.4,0.7-0.5,1.2l0,0h2.7v-0.1c0-0.4-0.1-0.8-0.3-1.1S107.9,55.6,107.5,55.6z"/>
	<path class="st0" d="M112.4,54.9l0.1,0.9c0.2-0.3,0.4-0.6,0.7-0.7c0.3-0.2,0.6-0.3,1-0.3c0.6,0,1.1,0.2,1.5,0.6
		c0.4,0.4,0.5,1,0.5,1.8V61h-1.1v-3.8c0-0.5-0.1-0.9-0.3-1.1s-0.5-0.3-0.9-0.3c-0.3,0-0.6,0.1-0.8,0.2c-0.2,0.2-0.4,0.4-0.6,0.6V61
		h-1.1v-6h1V54.9z"/>
	<path class="st0" d="M120.5,60.1c0.4,0,0.7-0.1,0.9-0.3c0.3-0.2,0.4-0.5,0.4-0.8h1l0,0c0,0.5-0.2,1-0.7,1.4s-1,0.6-1.6,0.6
		c-0.9,0-1.5-0.3-2-0.9c-0.5-0.6-0.7-1.3-0.7-2.1v-0.2c0-0.9,0.2-1.6,0.7-2.1c0.5-0.6,1.1-0.9,2-0.9c0.7,0,1.3,0.2,1.7,0.6
		c0.4,0.4,0.7,0.9,0.6,1.5l0,0h-1c0-0.4-0.1-0.7-0.4-0.9c-0.3-0.3-0.6-0.4-1-0.4c-0.6,0-1,0.2-1.2,0.6c-0.2,0.4-0.4,0.9-0.4,1.5V58
		c0,0.6,0.1,1.1,0.4,1.5C119.5,59.9,119.9,60.1,120.5,60.1z"/>
	<path class="st0" d="M126.8,61c-0.8,0-1.5-0.3-2-0.8c-0.5-0.6-0.7-1.3-0.7-2.2v-0.2c0-0.9,0.3-1.6,0.8-2.1s1.1-0.9,1.8-0.9
		c0.8,0,1.4,0.2,1.8,0.7s0.6,1.1,0.6,2v0.7h-3.8l0,0c0,0.6,0.2,1,0.4,1.4c0.3,0.4,0.7,0.6,1.2,0.6c0.4,0,0.7-0.1,1-0.2
		c0.3-0.1,0.5-0.2,0.7-0.4l0.4,0.7c-0.2,0.2-0.5,0.4-0.8,0.5S127.3,61,126.8,61z M126.6,55.6c-0.4,0-0.7,0.2-0.9,0.5
		c-0.3,0.3-0.4,0.7-0.5,1.2l0,0h2.7v-0.1c0-0.4-0.1-0.8-0.3-1.1S127.1,55.6,126.6,55.6z"/>
	<path class="st0" d="M134.8,53.3h-1.1v-1.1h1.1V53.3z M134.8,60.9h-1.1v-6h1.1V60.9z"/>
	<path class="st0" d="M137.8,54.9l0.1,0.9c0.2-0.3,0.4-0.6,0.7-0.7c0.3-0.2,0.6-0.3,1-0.3c0.6,0,1.1,0.2,1.5,0.6
		c0.4,0.4,0.5,1,0.5,1.8V61h-1.1v-3.8c0-0.5-0.1-0.9-0.3-1.1s-0.5-0.3-0.9-0.3c-0.3,0-0.6,0.1-0.8,0.2c-0.2,0.2-0.4,0.4-0.6,0.6V61
		h-1.1v-6h1V54.9z"/>
	<path class="st0" d="M148.4,58.1l0.1,1l0,0l0.2-1l1.5-5.3h1l1.5,5.3l0.2,1l0,0l0.2-1l1.2-5.3h1.1l-1.9,8.1h-1l-1.6-5.6l-0.1-0.7
		l0,0l-0.1,0.7l-1.6,5.6h-1l-1.9-8.1h1.1L148.4,58.1z"/>
	<path class="st0" d="M159.1,61c-0.8,0-1.5-0.3-2-0.8c-0.5-0.6-0.7-1.3-0.7-2.2v-0.2c0-0.9,0.3-1.6,0.8-2.1s1.1-0.9,1.8-0.9
		c0.8,0,1.4,0.2,1.8,0.7s0.6,1.1,0.6,2v0.7h-3.8l0,0c0,0.6,0.2,1,0.4,1.4c0.3,0.4,0.7,0.6,1.2,0.6c0.4,0,0.7-0.1,1-0.2
		c0.3-0.1,0.5-0.2,0.7-0.4l0.4,0.7c-0.2,0.2-0.5,0.4-0.8,0.5S159.6,61,159.1,61z M158.9,55.6c-0.4,0-0.7,0.2-0.9,0.5
		c-0.3,0.3-0.4,0.7-0.5,1.2l0,0h2.7v-0.1c0-0.4-0.1-0.8-0.3-1.1S159.4,55.6,158.9,55.6z"/>
	<path class="st0" d="M166.5,60.9c0-0.2-0.1-0.3-0.1-0.5s0-0.3,0-0.4c-0.2,0.3-0.5,0.5-0.8,0.7s-0.7,0.3-1,0.3
		c-0.6,0-1.1-0.2-1.4-0.5c-0.3-0.3-0.5-0.8-0.5-1.3c0-0.6,0.2-1,0.7-1.3s1.1-0.5,1.9-0.5h1.2v-0.6c0-0.4-0.1-0.6-0.3-0.8
		s-0.5-0.3-0.9-0.3c-0.3,0-0.6,0.1-0.8,0.3s-0.3,0.4-0.3,0.6h-1l0,0c0-0.4,0.2-0.8,0.6-1.2s1-0.5,1.7-0.5s1.2,0.2,1.6,0.5
		c0.4,0.3,0.6,0.8,0.6,1.5v2.9c0,0.2,0,0.4,0,0.6c0,0.2,0.1,0.4,0.1,0.6L166.5,60.9L166.5,60.9z M164.7,60.1c0.4,0,0.7-0.1,1.1-0.3
		s0.5-0.4,0.6-0.7v-1h-1.2c-0.4,0-0.8,0.1-1,0.3c-0.3,0.2-0.4,0.5-0.4,0.8s0.1,0.5,0.2,0.6C164.1,60,164.4,60.1,164.7,60.1z"/>
	<path class="st0" d="M170.5,60.9h-1.1v-8.6h1.1V60.9z"/>
	<path class="st0" d="M173.9,53.4v1.4h1.1v0.8h-1.1v3.6c0,0.3,0.1,0.5,0.2,0.6s0.3,0.2,0.5,0.2c0.1,0,0.1,0,0.2,0s0.1,0,0.2-0.1
		l0.1,0.7c-0.1,0.1-0.2,0.1-0.4,0.2c-0.2,0-0.3,0.1-0.5,0.1c-0.4,0-0.8-0.1-1-0.4s-0.4-0.7-0.4-1.3v-3.6h-0.9v-0.8h0.9v-1.4H173.9z"
		/>
	<path class="st0" d="M177.7,55.7c0.2-0.3,0.5-0.5,0.8-0.7s0.6-0.2,1-0.2c0.6,0,1.1,0.2,1.5,0.6c0.4,0.4,0.5,1,0.5,1.8V61h-1.1v-3.8
		c0-0.5-0.1-0.9-0.3-1.1s-0.5-0.4-0.9-0.4c-0.3,0-0.6,0.1-0.8,0.2c-0.2,0.1-0.4,0.3-0.6,0.6v4.4h-1.1v-8.6h1.1L177.7,55.7
		L177.7,55.7z"/>
	<path class="st0" d="M191,58.8c0-0.4-0.1-0.7-0.4-0.9s-0.8-0.5-1.5-0.6c-0.8-0.2-1.5-0.5-2-0.9s-0.7-0.9-0.7-1.5s0.3-1.2,0.8-1.6
		c0.5-0.4,1.2-0.6,2-0.6c0.9,0,1.6,0.2,2.1,0.7s0.8,1,0.7,1.7l0,0h-1c0-0.5-0.2-0.9-0.5-1.1s-0.8-0.4-1.3-0.4s-0.9,0.1-1.2,0.4
		s-0.4,0.6-0.4,1s0.2,0.6,0.5,0.9c0.3,0.2,0.8,0.4,1.5,0.6c0.8,0.2,1.5,0.5,1.9,0.9s0.7,0.9,0.7,1.5c0,0.7-0.3,1.2-0.8,1.6
		S190,61,189.2,61s-1.5-0.2-2.1-0.7c-0.6-0.4-0.9-1-0.9-1.8l0,0h1c0,0.5,0.2,0.9,0.6,1.2c0.4,0.3,0.8,0.4,1.4,0.4
		c0.5,0,1-0.1,1.3-0.3C190.8,59.5,191,59.2,191,58.8z"/>
	<path class="st0" d="M193.5,57.8c0-0.9,0.2-1.6,0.7-2.2c0.5-0.6,1.1-0.9,1.9-0.9c0.8,0,1.5,0.3,1.9,0.9c0.5,0.6,0.7,1.3,0.7,2.2
		v0.1c0,0.9-0.2,1.6-0.7,2.2c-0.5,0.6-1.1,0.9-1.9,0.9s-1.5-0.3-1.9-0.9C193.7,59.5,193.5,58.8,193.5,57.8L193.5,57.8z M194.5,57.9
		c0,0.6,0.1,1.2,0.4,1.6c0.3,0.4,0.7,0.6,1.2,0.6s0.9-0.2,1.2-0.6s0.4-0.9,0.4-1.6v-0.1c0-0.6-0.1-1.1-0.4-1.6
		c-0.3-0.4-0.7-0.6-1.2-0.6s-0.9,0.2-1.2,0.6C194.6,56.6,194.5,57.1,194.5,57.9L194.5,57.9z"/>
	<path class="st0" d="M201.6,60.9h-1.1v-8.6h1.1V60.9z"/>
	<path class="st0" d="M207.3,60c-0.2,0.3-0.4,0.6-0.7,0.7c-0.3,0.2-0.6,0.3-1,0.3c-0.6,0-1.1-0.2-1.5-0.6s-0.5-1.1-0.5-2v-3.5h1.1
		v3.5c0,0.6,0.1,1.1,0.3,1.3s0.5,0.4,0.9,0.4s0.7-0.1,0.9-0.2c0.2-0.2,0.4-0.4,0.6-0.7v-4.3h1.1v6h-1L207.3,60z"/>
	<path class="st0" d="M211.6,53.4v1.4h1.1v0.8h-1.1v3.6c0,0.3,0.1,0.5,0.2,0.6s0.3,0.2,0.5,0.2c0.1,0,0.1,0,0.2,0s0.1,0,0.2-0.1
		l0.1,0.7c-0.1,0.1-0.2,0.1-0.4,0.2c-0.2,0-0.3,0.1-0.5,0.1c-0.4,0-0.8-0.1-1-0.4s-0.4-0.7-0.4-1.3v-3.6h-0.9v-0.8h0.9v-1.4H211.6z"
		/>
	<path class="st0" d="M215.5,53.3h-1.1v-1.1h1.1V53.3z M215.5,60.9h-1.1v-6h1.1V60.9z"/>
	<path class="st0" d="M217.3,57.8c0-0.9,0.2-1.6,0.7-2.2c0.5-0.6,1.1-0.9,1.9-0.9c0.8,0,1.5,0.3,1.9,0.9c0.5,0.6,0.7,1.3,0.7,2.2
		v0.1c0,0.9-0.2,1.6-0.7,2.2c-0.5,0.6-1.1,0.9-1.9,0.9s-1.5-0.3-1.9-0.9C217.5,59.5,217.3,58.8,217.3,57.8L217.3,57.8z M218.3,57.9
		c0,0.6,0.1,1.2,0.4,1.6c0.3,0.4,0.7,0.6,1.2,0.6s0.9-0.2,1.2-0.6s0.4-0.9,0.4-1.6v-0.1c0-0.6-0.1-1.1-0.4-1.6
		c-0.3-0.4-0.7-0.6-1.2-0.6s-0.9,0.2-1.2,0.6C218.4,56.6,218.3,57.1,218.3,57.9L218.3,57.9z"/>
	<path class="st0" d="M225.2,54.9l0.1,0.9c0.2-0.3,0.4-0.6,0.7-0.7c0.3-0.2,0.6-0.3,1-0.3c0.6,0,1.1,0.2,1.5,0.6
		c0.4,0.4,0.5,1,0.5,1.8V61h-1.1v-3.8c0-0.5-0.1-0.9-0.3-1.1s-0.5-0.3-0.9-0.3c-0.3,0-0.6,0.1-0.8,0.2c-0.2,0.2-0.4,0.4-0.6,0.6V61
		h-1.1v-6h1V54.9z"/>
	<path class="st0" d="M234.3,59.3c0-0.2-0.1-0.4-0.3-0.6c-0.2-0.2-0.5-0.3-1-0.4c-0.7-0.2-1.3-0.4-1.6-0.6c-0.4-0.3-0.5-0.6-0.5-1.1
		s0.2-0.9,0.6-1.2c0.4-0.3,0.9-0.5,1.6-0.5c0.7,0,1.2,0.2,1.6,0.5c0.4,0.4,0.6,0.8,0.6,1.3l0,0h-1c0-0.3-0.1-0.5-0.3-0.7
		s-0.5-0.3-0.9-0.3s-0.7,0.1-0.9,0.3s-0.3,0.4-0.3,0.6c0,0.2,0.1,0.4,0.2,0.6s0.5,0.3,1,0.4c0.7,0.2,1.3,0.4,1.7,0.7
		s0.5,0.7,0.5,1.1c0,0.5-0.2,1-0.6,1.3c-0.4,0.3-1,0.5-1.7,0.5c-0.8,0-1.3-0.2-1.8-0.6c-0.4-0.4-0.6-0.8-0.6-1.4l0,0h1
		c0,0.4,0.2,0.7,0.4,0.8c0.3,0.2,0.6,0.3,0.9,0.3c0.4,0,0.7-0.1,0.9-0.2C234.2,59.7,234.3,59.5,234.3,59.3z"/>
	<path class="st0" d="M240.3,60.9v-8.1h2.4c1,0,1.9,0.3,2.5,1c0.6,0.6,0.9,1.5,0.9,2.5v1.1c0,1-0.3,1.9-0.9,2.5
		c-0.6,0.6-1.5,1-2.5,1H240.3z M241.4,53.7V60h1.4c0.7,0,1.3-0.2,1.7-0.7s0.6-1.1,0.6-1.9v-1.1c0-0.8-0.2-1.4-0.6-1.9
		c-0.4-0.5-1-0.7-1.7-0.7C242.8,53.7,241.4,53.7,241.4,53.7z"/>
	<path class="st0" d="M250.3,61c-0.8,0-1.5-0.3-2-0.8c-0.5-0.6-0.7-1.3-0.7-2.2v-0.2c0-0.9,0.3-1.6,0.8-2.1s1.1-0.9,1.8-0.9
		c0.8,0,1.4,0.2,1.8,0.7s0.6,1.1,0.6,2v0.7h-3.8l0,0c0,0.6,0.2,1,0.4,1.4c0.3,0.4,0.7,0.6,1.2,0.6c0.4,0,0.7-0.1,1-0.2
		c0.3-0.1,0.5-0.2,0.7-0.4l0.4,0.7c-0.2,0.2-0.5,0.4-0.8,0.5S250.8,61,250.3,61z M250.1,55.6c-0.4,0-0.7,0.2-0.9,0.5
		c-0.3,0.3-0.4,0.7-0.5,1.2l0,0h2.7v-0.1c0-0.4-0.1-0.8-0.3-1.1S250.6,55.6,250.1,55.6z"/>
	<path class="st0" d="M255.2,60.9h-1.1v-8.6h1.1V60.9z"/>
	<path class="st0" d="M258.4,53.3h-1.1v-1.1h1.1V53.3z M258.4,60.9h-1.1v-6h1.1V60.9z"/>
	<path class="st0" d="M262.3,59.1l0.1,0.4l0,0l0.1-0.4l1.4-4.2h1.1l-2.2,6H262l-2.2-6h1.1L262.3,59.1z"/>
	<path class="st0" d="M268.7,61c-0.8,0-1.5-0.3-2-0.8c-0.5-0.6-0.7-1.3-0.7-2.2v-0.2c0-0.9,0.3-1.6,0.8-2.1s1.1-0.9,1.8-0.9
		c0.8,0,1.4,0.2,1.8,0.7s0.6,1.1,0.6,2v0.7h-3.8l0,0c0,0.6,0.2,1,0.4,1.4c0.3,0.4,0.7,0.6,1.2,0.6c0.4,0,0.7-0.1,1-0.2
		c0.3-0.1,0.5-0.2,0.7-0.4l0.4,0.7c-0.2,0.2-0.5,0.4-0.8,0.5S269.2,61,268.7,61z M268.5,55.6c-0.4,0-0.7,0.2-0.9,0.5
		c-0.3,0.3-0.4,0.7-0.5,1.2l0,0h2.7v-0.1c0-0.4-0.1-0.8-0.3-1.1S268.9,55.6,268.5,55.6z"/>
	<path class="st0" d="M275.2,55.8h-0.6c-0.3,0-0.5,0.1-0.7,0.2c-0.2,0.1-0.3,0.3-0.5,0.6v4.3h-1.1v-6h1l0.1,0.9
		c0.2-0.3,0.4-0.6,0.6-0.7c0.2-0.2,0.5-0.3,0.9-0.3c0.1,0,0.2,0,0.2,0s0.1,0,0.2,0L275.2,55.8z"/>
	<path class="st0" d="M278.5,58.6l0.2,0.8l0,0l1.5-4.5h1.2l-2.5,6.9c-0.1,0.4-0.4,0.8-0.6,1.1s-0.7,0.4-1.1,0.4c-0.1,0-0.2,0-0.3,0
		c-0.1,0-0.2,0-0.3-0.1l0.1-0.9c0,0,0,0,0.2,0s0.2,0,0.3,0c0.2,0,0.4-0.1,0.6-0.3c0.1-0.2,0.3-0.4,0.4-0.7l0.3-0.6l-2.2-5.9h1.2
		L278.5,58.6z"/>
</g>
<g>
	<polygon class="st2" points="31.1,14 16.1,39.6 45.9,39.6 	"/>
	<polygon class="st3" points="31.1,14 16.1,5.3 16.1,22.4 	"/>
	<path class="st4" d="M31.1,1.2C31.1,1.2,31,1.2,31.1,1.2c-5,0-9.6,1.2-13.6,3.3l-1.4,0.8l15,8.7V1.2z"/>
	<path class="st5" d="M45.9,5.3l-1.4-0.8c-4-2.1-8.6-3.3-13.4-3.3V14L45.9,5.3z"/>
	<polygon class="st6" points="45.9,22.4 45.9,5.3 31.1,14 	"/>
	<path class="st5" d="M56.7,16.3c-2.4-4.3-5.8-7.9-9.9-10.5l-0.9-0.5v17.2L56.7,16.3z"/>
	<path class="st4" d="M60.5,30.8c0-5.3-1.4-10.2-3.8-14.5l-10.8,6.2L60.5,30.8z"/>
	<path class="st5" d="M60.5,30.8l-14.6-8.4v17.2L60.5,31v-0.1V30.8z"/>
	<path class="st7" d="M56.6,45.6c2.4-4.3,3.8-9.3,3.8-14.6l-14.6,8.6L56.6,45.6z"/>
	<path class="st4" d="M45.9,56.6l1-0.6c4-2.6,7.4-6.2,9.8-10.4l-10.7-6L45.9,56.6L45.9,56.6z"/>
	<polygon class="st3" points="31.1,47.9 45.9,56.6 45.9,39.6 	"/>
	<path class="st4" d="M31.1,60.7c4.8,0,9.3-1.2,13.3-3.2l1.5-0.8L31.1,48C31.1,48,31.1,60.7,31.1,60.7z"/>
	<path class="st5" d="M16.1,56.6l1.5,0.8c4,2.1,8.6,3.3,13.4,3.3h0.1V47.9L16.1,56.6z"/>
	<polygon class="st6" points="16.1,39.6 16.1,56.6 31.1,47.9 	"/>
	<path class="st5" d="M5.4,45.7c2.4,4.2,5.8,7.8,9.9,10.4l0.8,0.5v-17L5.4,45.7z"/>
	<path class="st4" d="M1.5,30.9L1.5,30.9c0,5.4,1.4,10.4,3.9,14.8l10.7-6.1L1.5,30.9z"/>
	<polygon class="st5" points="1.5,30.9 1.5,30.9 16.1,39.6 16.1,22.4 	"/>
	<path class="st7" d="M5.4,16.2c-2.5,4.3-3.9,9.4-3.9,14.7l14.6-8.5L5.4,16.2z"/>
	<path class="st4" d="M16.1,5.3l-0.7,0.4c-4.2,2.6-7.6,6.2-10,10.5l10.7,6.2V5.3z"/>
	<polygon class="st4" points="16.1,22.4 16.1,39.6 31.1,14 	"/>
	<polygon class="st4" points="45.9,39.6 16.1,39.6 31.1,47.9 	"/>
	<polygon class="st4" points="45.9,39.6 45.9,22.4 31.1,14 	"/>
</g>
</svg>
